<svg width="136" height="136" viewBox="0 0 136 136" fill="none" xmlns="http://www.w3.org/2000/svg">
<path d="M136 68C136 30.4446 105.555 0 68 0C30.4446 0 0 30.4446 0 68C0 105.555 30.4446 136 68 136C105.555 136 136 105.555 136 68Z" fill="#C4C4C4"/>
<path d="M67.2002 31.8599C46.1002 31.8599 28.7998 49.0899 28.7998 70.2699C28.7998 91.4399 46.1002 108.67 67.2002 108.67C88.4002 108.67 105.7 91.4399 105.7 70.2699C105.7 49.0899 88.4002 31.8599 67.2002 31.8599ZM67.2002 100.99C50.3002 100.99 36.5 87.2099 36.5 70.2699C36.5 67.1599 37.0004 64.1598 37.9004 61.3298C38.2004 61.5498 38.6004 61.7499 38.9004 61.9899C40.5004 62.9899 42.2996 64.1199 44.5996 64.9698C47.0996 65.9498 49.8996 66.4299 53.0996 66.4299C56.2996 66.4299 59.2002 65.9499 61.7002 64.9799C64.0002 64.1199 65.8004 62.9999 67.4004 61.9799C68.8004 61.0699 70.0996 60.2798 71.5996 59.6898C73.2996 59.0498 75.2 58.7399 77.5 58.7399C79.8 58.7399 81.5998 59.0498 83.2998 59.6998C84.8998 60.2698 86.0996 61.0599 87.5996 62.0099C89.1996 62.9999 91.0002 64.1299 93.2002 64.9799C94.6002 65.5099 96.1002 65.8599 97.7002 66.0999C97.8002 67.4699 98 68.8499 98 70.2699C98 87.2099 84.2002 100.99 67.2002 100.99Z" fill="white"/>
<path d="M53.7998 81.79C56.9998 81.79 59.5996 79.21 59.5996 76.03C59.5996 72.85 56.9998 70.27 53.7998 70.27C50.5998 70.27 48 72.85 48 76.03C48 79.21 50.5998 81.79 53.7998 81.79Z" fill="white"/>
<path d="M80.7002 81.79C83.9002 81.79 86.4004 79.21 86.4004 76.03C86.4004 72.85 83.9002 70.27 80.7002 70.27C77.5002 70.27 74.9004 72.85 74.9004 76.03C74.9004 79.21 77.5002 81.79 80.7002 81.79Z" fill="white"/>
</svg>
